<svg width="52" height="53" viewBox="0 0 52 53" fill="none" xmlns="http://www.w3.org/2000/svg">
<g id="tabler-icon-flag-check">
<path id="Vector" d="M29.3092 34.5323C30.0864 34.819 30.949 34.4214 31.2357 33.6442C31.5224 32.867 31.1248 32.0045 30.3476 31.7177L29.3092 34.5323ZM25.9999 30.6983L27.051 29.6282L27.0499 29.6271L25.9999 30.6983ZM10.8333 11.1983L9.78325 10.1271C9.49543 10.4093 9.33325 10.7953 9.33325 11.1983H10.8333ZM18.4166 8.10156V6.60156V8.10156ZM33.5833 14.2951V15.7951V14.2951ZM41.1666 11.1983H42.6666C42.6666 10.5944 42.3044 10.0493 41.7475 9.81542C41.1907 9.5815 40.5479 9.70436 40.1166 10.1271L41.1666 11.1983ZM39.6666 29.615C39.6666 30.4434 40.3382 31.115 41.1666 31.115C41.995 31.115 42.6666 30.4434 42.6666 29.615H39.6666ZM9.33325 45.8659C9.33325 46.6943 10.0048 47.3659 10.8333 47.3659C11.6617 47.3659 12.3333 46.6943 12.3333 45.8659H9.33325ZM33.5606 40.4719C32.9748 39.8861 32.025 39.8861 31.4393 40.4719C30.8535 41.0577 30.8535 42.0074 31.4393 42.5932L33.5606 40.4719ZM36.8333 45.8659L35.7726 46.9265C36.3584 47.5123 37.3081 47.5123 37.8939 46.9265L36.8333 45.8659ZM46.5606 38.2599C47.1464 37.6741 47.1464 36.7243 46.5606 36.1386C45.9748 35.5528 45.025 35.5528 44.4393 36.1386L46.5606 38.2599ZM30.3476 31.7177C29.1133 31.2623 27.9896 30.5501 27.051 29.6282L24.9488 31.7685C26.1903 32.9879 27.6766 33.93 29.3092 34.5323L30.3476 31.7177ZM27.0499 29.6271C24.7445 27.3673 21.6449 26.1016 18.4166 26.1016V29.1016C20.8596 29.1016 23.2052 30.0594 24.9499 31.7696L27.0499 29.6271ZM18.4166 26.1016C15.1883 26.1016 12.0887 27.3673 9.78325 29.6271L11.8833 31.7696C13.6279 30.0594 15.9736 29.1016 18.4166 29.1016V26.1016ZM12.3333 30.6983V11.1983H9.33325V30.6983H12.3333ZM11.8833 12.2696C13.6279 10.5594 15.9736 9.60156 18.4166 9.60156V6.60156C15.1883 6.60156 12.0887 7.86734 9.78325 10.1271L11.8833 12.2696ZM18.4166 9.60156C20.8596 9.60156 23.2052 10.5594 24.9499 12.2696L27.0499 10.1271C24.7445 7.86734 21.6449 6.60156 18.4166 6.60156V9.60156ZM24.9499 12.2696C27.2554 14.5294 30.355 15.7951 33.5833 15.7951V12.7951C31.1402 12.7951 28.7946 11.8373 27.0499 10.1271L24.9499 12.2696ZM33.5833 15.7951C36.8115 15.7951 39.9111 14.5294 42.2166 12.2696L40.1166 10.1271C38.3719 11.8373 36.0263 12.7951 33.5833 12.7951V15.7951ZM39.6666 11.1983V29.615H42.6666V11.1983H39.6666ZM12.3333 45.8659V30.6983H9.33325V45.8659H12.3333ZM31.4393 42.5932L35.7726 46.9265L37.8939 44.8052L33.5606 40.4719L31.4393 42.5932ZM37.8939 46.9265L46.5606 38.2599L44.4393 36.1386L35.7726 44.8052L37.8939 46.9265Z" fill="white"/>
</g>
</svg>
