<svg width="70" height="51" viewBox="0 0 70 51" fill="none" xmlns="http://www.w3.org/2000/svg">
<rect width="70" height="51" fill="#1E1E1E"/>
<g id="conocenos" clip-path="url(#clip0_0_1)">
<rect width="1440" height="2062.37" transform="translate(-79 -786)" fill="white"/>
<g id="section">
<rect width="1440" height="727.369" transform="translate(-79 -58)" fill="#EFEFF4"/>
<g id="div">
<g id="title">
<path id="Vector" d="M1.00028 24.5C0.447998 24.4998 0.000156105 24.9474 5.96046e-08 25.4997C-0.000156045 26.052 0.447433 26.4998 0.999717 26.5L1.00028 24.5ZM60.5553 26.5168C61.1076 26.517 61.5554 26.0694 61.5556 25.5171C61.5557 24.9648 61.1081 24.517 60.5558 24.5168L60.5553 26.5168ZM1 16.6667C0.447715 16.6667 0 17.1144 0 17.6667C0 18.219 0.447715 18.6667 1 18.6667V16.6667ZM41.9444 17.6667V18.6667H44.2744L42.6693 16.9778L41.9444 17.6667ZM34.5 9.83333L33.7751 9.14445L33.1204 9.83333L33.7751 10.5222L34.5 9.83333ZM34.5 41.1667L33.7751 40.4778L33.1204 41.1667L33.7751 41.8556L34.5 41.1667ZM42.6693 34.0222C43.0498 33.6219 43.0337 32.9889 42.6333 32.6085C42.233 32.228 41.6 32.2441 41.2196 32.6444L42.6693 34.0222ZM41.9444 2L42.6142 1.25741L41.8907 0.604903L41.2196 1.31112L41.9444 2ZM68 25.5L68.6698 26.2426L69.4931 25.5L68.6698 24.7574L68 25.5ZM41.9444 49L41.2196 49.6889L41.8907 50.3951L42.6142 49.7426L41.9444 49ZM1.00041 32.3333C0.448126 32.3331 0.000227153 32.7806 5.96046e-08 33.3329C-0.000226974 33.8852 0.447304 34.3331 0.999589 34.3333L1.00041 32.3333ZM41.944 34.3502C42.4963 34.3504 42.9442 33.9029 42.9444 33.3506C42.9447 32.7983 42.4971 32.3504 41.9449 32.3502L41.944 34.3502ZM42.5884 9.0683C42.1659 8.71264 41.5351 8.76682 41.1794 9.18934C40.8237 9.61185 40.8779 10.2427 41.3005 10.5984L42.5884 9.0683ZM60.5556 25.5L61.1996 26.265L62.1084 25.5L61.1996 24.735L60.5556 25.5ZM41.3005 40.4016C40.8779 40.7573 40.8237 41.3881 41.1794 41.8107C41.5351 42.2332 42.1659 42.2874 42.5884 41.9317L41.3005 40.4016ZM0.999717 26.5L60.5553 26.5168L60.5558 24.5168L1.00028 24.5L0.999717 26.5ZM1 18.6667H41.9444V16.6667H1V18.6667ZM33.7751 10.5222L41.2196 18.3556L42.6693 16.9778L35.2249 9.14445L33.7751 10.5222ZM35.2249 41.8556L42.6693 34.0222L41.2196 32.6444L33.7751 40.4778L35.2249 41.8556ZM41.2747 2.74259L67.3302 26.2426L68.6698 24.7574L42.6142 1.25741L41.2747 2.74259ZM42.6142 49.7426L68.6698 26.2426L67.3302 24.7574L41.2747 48.2574L42.6142 49.7426ZM35.2249 10.5222L42.6693 2.68888L41.2196 1.31112L33.7751 9.14445L35.2249 10.5222ZM42.6693 48.3111L35.2249 40.4778L33.7751 41.8556L41.2196 49.6889L42.6693 48.3111ZM0.999589 34.3333L41.944 34.3502L41.9449 32.3502L1.00041 32.3333L0.999589 34.3333ZM41.3005 10.5984L59.9116 26.265L61.1996 24.735L42.5884 9.0683L41.3005 10.5984ZM42.5884 41.9317L61.1996 26.265L59.9116 24.735L41.3005 40.4016L42.5884 41.9317Z" fill="#095526"/>
</g>
</g>
</g>
</g>
<defs>
<clipPath id="clip0_0_1">
<rect width="1440" height="2062.37" fill="white" transform="translate(-79 -786)"/>
</clipPath>
</defs>
</svg>
