<svg width="64" height="70" viewBox="0 0 64 70" fill="none" xmlns="http://www.w3.org/2000/svg">
<path id="Vector" d="M33 1.36754C33.0002 0.815258 32.5526 0.367384 32.0004 0.367188C31.4481 0.366992 31.0002 0.814548 31 1.36683L33 1.36754ZM30.9789 60.9224C30.9787 61.4747 31.4262 61.9226 31.9785 61.9227C32.5308 61.9229 32.9787 61.4754 32.9789 60.9231L30.9789 60.9224ZM42.8333 1.36719C42.8333 0.814903 42.3856 0.367188 41.8333 0.367188C41.281 0.367188 40.8333 0.814903 40.8333 1.36719L42.8333 1.36719ZM41.8333 42.3116H40.8333V44.3229L42.4369 43.1089L41.8333 42.3116ZM51.6667 34.8672L52.2703 34.0699L51.6667 33.6129L51.0631 34.0699L51.6667 34.8672ZM12.3333 34.8672L12.9369 34.0699L12.3333 33.6129L11.7297 34.0699L12.3333 34.8672ZM21.5631 43.1089C22.0034 43.4423 22.6306 43.3556 22.964 42.9152C23.2973 42.4749 23.2106 41.8477 22.7703 41.5143L21.5631 43.1089ZM61.5 42.3116L62.162 43.0611L63.078 42.2521L62.1036 41.5143L61.5 42.3116ZM32 68.3672L31.338 69.1167L32 69.7014L32.662 69.1167L32 68.3672ZM2.5 42.3116L1.8964 41.5143L0.921963 42.2521L1.83801 43.0611L2.5 42.3116ZM23.1667 1.3677C23.167 0.815419 22.7195 0.367473 22.1672 0.367188C21.6149 0.366903 21.167 0.814387 21.1667 1.36667L23.1667 1.3677ZM21.1455 42.3111C21.1452 42.8634 21.5927 43.3113 22.145 43.3116C22.6973 43.3119 23.1452 42.8644 23.1455 42.3121L21.1455 42.3111ZM52.354 43.038C52.7552 42.6584 52.7726 42.0254 52.393 41.6243C52.0134 41.2231 51.3805 41.2057 50.9793 41.5853L52.354 43.038ZM32 60.9227L31.3127 61.6491L32 62.2995L32.6873 61.6491L32 60.9227ZM13.0207 41.5853C12.6195 41.2057 11.9866 41.2231 11.607 41.6243C11.2274 42.0254 11.2448 42.6584 11.646 43.038L13.0207 41.5853ZM31 1.36683L30.9789 60.9224L32.9789 60.9231L33 1.36754L31 1.36683ZM40.8333 1.36719V42.3116H42.8333V1.36719L40.8333 1.36719ZM51.0631 34.0699L41.2297 41.5143L42.4369 43.1089L52.2703 35.6645L51.0631 34.0699ZM11.7297 35.6645L21.5631 43.1089L22.7703 41.5143L12.9369 34.0699L11.7297 35.6645ZM60.838 41.5621L31.338 67.6177L32.662 69.1167L62.162 43.0611L60.838 41.5621ZM1.83801 43.0611L31.338 69.1167L32.662 67.6177L3.16199 41.5621L1.83801 43.0611ZM51.0631 35.6645L60.8964 43.1089L62.1036 41.5143L52.2703 34.0699L51.0631 35.6645ZM3.1036 43.1089L12.9369 35.6645L11.7297 34.0699L1.8964 41.5143L3.1036 43.1089ZM21.1667 1.36667L21.1455 42.3111L23.1455 42.3121L23.1667 1.3677L21.1667 1.36667ZM50.9793 41.5853L31.3127 60.1964L32.6873 61.6491L52.354 43.038L50.9793 41.5853ZM11.646 43.038L31.3127 61.6491L32.6873 60.1964L13.0207 41.5853L11.646 43.038Z" fill="#095526"/>
</svg>
