<svg width="36" height="56" viewBox="0 0 36 56" fill="none" xmlns="http://www.w3.org/2000/svg">
<path id="Vector" d="M12.1364 45.6364C12.1364 46.4648 12.8079 47.1364 13.6364 47.1364C14.4648 47.1364 15.1364 46.4648 15.1364 45.6364H12.1364ZM13.6364 2L14.3806 0.697635C13.9163 0.432347 13.3459 0.434252 12.8835 0.702635C12.421 0.971018 12.1364 1.46529 12.1364 2L13.6364 2ZM34 13.6364L34.7442 14.9387C35.2116 14.6717 35.5 14.1746 35.5 13.6364C35.5 13.0981 35.2116 12.6011 34.7442 12.334L34 13.6364ZM12.8922 23.9704C12.1729 24.3814 11.923 25.2977 12.334 26.0169C12.745 26.7362 13.6613 26.9861 14.3806 26.5751L12.8922 23.9704ZM5.66229 45.979C6.37871 45.563 6.62226 44.645 6.20627 43.9286C5.79029 43.2122 4.8723 42.9687 4.15589 43.3846L5.66229 45.979ZM23.1168 43.3846C22.4004 42.9687 21.4824 43.2122 21.0665 43.9286C20.6505 44.645 20.894 45.563 21.6104 45.979L23.1168 43.3846ZM15.1364 45.6364V2H12.1364V45.6364H15.1364ZM12.8922 3.30236L33.2558 14.9387L34.7442 12.334L14.3806 0.697635L12.8922 3.30236ZM33.2558 12.334L12.8922 23.9704L14.3806 26.5751L34.7442 14.9387L33.2558 12.334ZM4.15589 43.3846C2.18866 44.5269 0.5 46.2596 0.5 48.5509H3.5C3.5 47.8749 4.02225 46.9313 5.66229 45.979L4.15589 43.3846ZM0.5 48.5509C0.5 51.029 2.48445 52.8702 4.74736 54.0016C7.10414 55.18 10.252 55.8691 13.6364 55.8691V52.8691C10.6208 52.8691 7.9504 52.2491 6.089 51.3184C4.13373 50.3407 3.5 49.2728 3.5 48.5509H0.5ZM13.6364 55.8691C17.0208 55.8691 20.1686 55.18 22.5254 54.0016C24.7883 52.8702 26.7727 51.029 26.7727 48.5509H23.7727C23.7727 49.2728 23.139 50.3407 21.1837 51.3184C19.3223 52.2491 16.652 52.8691 13.6364 52.8691V55.8691ZM26.7727 48.5509C26.7727 46.2934 25.0906 44.5307 23.1168 43.3846L21.6104 45.979C23.2439 46.9275 23.7727 47.8993 23.7727 48.5509H26.7727Z" fill="white"/>
</svg>
