<svg width="1920" height="1080" viewBox="0 0 1920 1080" xmlns="http://www.w3.org/2000/svg"><rect width="1920" height="1080" fill="#45a550"/><path d="M 0,1080 C 0,1080 0,360 0,360 C 114.78571428571428,307.5357142857143 229.57142857142856,255.07142857142856 416,294 C 602.4285714285714,332.92857142857144 860.4999999999998,463.24999999999994 1025,448 C 1189.5000000000002,432.75000000000006 1260.4285714285713,271.92857142857144 1394,233 C 1527.5714285714287,194.07142857142856 1723.7857142857142,277.0357142857143 1920,360 C 1920,360 1920,1080 1920,1080 Z" fill="#306243" opacity="0.19999999999999998"/><path d="M 0,1080 C 0,1080 0,720 0,720 C 177.17857142857144,784.2142857142858 354.3571428571429,848.4285714285714 515,848 C 675.6428571428571,847.5714285714286 819.7500000000002,782.5000000000001 973,762 C 1126.2499999999998,741.4999999999999 1288.642857142857,765.5714285714286 1448,766 C 1607.357142857143,766.4285714285714 1763.6785714285716,743.2142857142858 1920,720 C 1920,720 1920,1080 1920,1080 Z" fill="#306243" opacity="0.39999999999999997"/></svg>